<?xml version="1.0" encoding="UTF-8"?>
<svg width="102px" height="89px" viewBox="0 0 102 89" version="1.1" xmlns="http://www.w3.org/2000/svg" xmlns:xlink="http://www.w3.org/1999/xlink">
    <!-- Generator: Sketch 46.2 (44496) - http://www.bohemiancoding.com/sketch -->
    <title>Shape</title>
    <desc>Created with Sketch.</desc>
    <defs></defs>
    <g id="Page-1" stroke="none" stroke-width="1" fill="none" fill-rule="evenodd">
        <g id="Instruction" transform="translate(-536.000000, -364.000000)" fill-rule="nonzero" fill="#000000">
            <g id="logo-01" transform="translate(536.000000, 364.000000)">
                <path d="M94.2740868,41.4983208 L93.5907489,41.4983208 L84.890004,41.4983208 L78.1468869,41.4983208 L76.583758,41.4983208 L76.583758,35.4149388 L76.583758,34.7259941 L76.583758,28.5424502 L76.6055271,28.5424502 L82.1985977,28.5424502 L82.7470732,28.5424502 L90.8993426,28.5424502 L99.3080627,28.5424502 L91.5794948,11.7613464 L90.8998735,11.7613464 L82.7476042,11.7613464 L82.1991286,11.7613464 L76.6060581,11.7613464 L76.584289,11.7613464 L76.584289,2.67575534 L76.584289,0 L56.3809544,0 L56.3809544,2.67575534 L56.3809544,11.7613464 L45.615329,11.7613464 L45.615329,2.67575534 L45.615329,0 L25.415711,0 L25.415711,2.67575534 L25.415711,11.7613464 L19.8014023,11.7613464 L19.2492101,11.7613464 L11.1038432,11.7613464 L10.4205052,11.7613464 L2.69140635,28.5424502 L11.1038432,28.5424502 L19.2492101,28.5424502 L19.8014023,28.5424502 L25.415711,28.5424502 L25.415711,34.7254642 L25.415711,35.4144089 L25.415711,41.4977909 L24.7498946,41.4977909 L17.1131817,41.4977909 L8.40925109,41.4977909 L7.72538221,41.4977909 L0,58.2767748 L8.40925109,58.2767748 L17.1131817,58.2767748 L24.7493636,58.2767748 L25.4151801,58.2767748 L25.4151801,66.0342924 L25.4151801,66.2579345 L25.4151801,89 C38.8759285,88.8648608 45.614798,81.7724398 45.614798,68.5929272 L45.614798,58.2767748 L56.3804234,58.2767748 L56.3804234,68.5929272 C56.3804234,81.7724398 63.1235405,88.8648608 76.583758,89 L76.583758,66.2579345 L76.583758,66.0342924 L76.583758,58.2767748 L78.1468869,58.2767748 L84.890004,58.2767748 L93.5907489,58.2767748 L102,58.2767748 L94.2740868,41.4983208 Z M46,35.2046059 L46,29 L57,29 L57,35.2040741 L57,42 L46,42 L46,35.2046059 Z" id="Shape"></path>
            </g>
        </g>
    </g>
</svg>